<?xml version="1.0" encoding="UTF-8" standalone="no"?>
<svg width="500" height="400" xmlns="http://www.w3.org/2000/svg">
  <style>
    .st0{fill:#FFFFFF;}
    .st1{fill:#F0F0F0;}
    .st2{fill:#0D6EFD;}
    .st3{fill:#0B5ED7;}
    .st4{fill:#6C757D;}
    .st5{fill:#212529;}
    .st6{fill:none;stroke:#212529;stroke-width:2;stroke-linecap:round;stroke-linejoin:round;}
  </style>
  
  <!-- Background shapes -->
  <circle cx="150" cy="150" r="100" class="st1" />
  <rect x="300" y="50" width="150" height="150" rx="20" class="st1" />
  <polygon points="100,300 200,250 300,300 250,350 150,350" class="st1" />
  
  <!-- Briefcase -->
  <rect x="170" y="120" width="160" height="120" rx="10" class="st2" />
  <rect x="170" y="120" width="160" height="30" rx="5" class="st3" />
  <rect x="240" y="120" width="20" height="30" class="st3" />
  <rect x="230" y="90" width="40" height="30" rx="5" class="st2" />
  
  <!-- Documents -->
  <rect x="200" y="170" width="100" height="50" rx="5" class="st0" />
  <line x1="220" y1="180" x2="280" y2="180" class="st6" />
  <line x1="220" y1="190" x2="260" y2="190" class="st6" />
  <line x1="220" y1="200" x2="270" y2="200" class="st6" />
  <line x1="220" y1="210" x2="250" y2="210" class="st6" />
  
  <!-- Person Silhouette -->
  <circle cx="350" cy="100" r="20" class="st5" />
  <rect x="340" y="120" width="20" height="40" rx="5" class="st5" />
  <rect x="320" y="130" width="60" height="20" rx="5" class="st5" />
  <rect x="330" y="160" width="10" height="30" class="st5" />
  <rect x="360" y="160" width="10" height="30" class="st5" />
  
  <!-- Search Icon -->
  <circle cx="120" cy="270" r="25" fill="none" stroke="#0D6EFD" stroke-width="8" />
  <line x1="138" y1="288" x2="160" y2="310" stroke="#0D6EFD" stroke-width="8" stroke-linecap="round" />
  
  <!-- Text Elements (represented as shapes for SVG compatibility) -->
  <!-- "JOB" -->
  <rect x="390" y="230" width="15" height="40" class="st2" />
  <rect x="390" y="230" width="40" height="15" class="st2" />
  <rect x="390" y="255" width="40" height="15" class="st2" />
  
  <rect x="440" y="230" width="40" height="40" rx="20" class="st2" />
  <rect x="450" y="240" width="20" height="20" rx="10" class="st0" />
  
  <rect x="490" y="230" width="15" height="40" class="st2" />
  <rect x="490" y="230" width="30" height="15" class="st2" />
  <rect x="490" y="255" width="30" height="15" class="st2" />
  <rect x="505" y="240" width="15" height="20" class="st2" />
  
  <!-- Decorative Lines -->
  <line x1="50" y1="350" x2="450" y2="350" stroke="#E9ECEF" stroke-width="4" />
  <circle cx="100" cy="350" r="8" class="st2" />
  <circle cx="200" cy="350" r="8" class="st2" />
  <circle cx="300" cy="350" r="8" class="st2" />
  <circle cx="400" cy="350" r="8" class="st2" />
  
  <!-- Additional Decorative Elements -->
  <circle cx="450" cy="100" r="15" class="st2" />
  <circle cx="470" cy="120" r="10" class="st2" />
  <circle cx="430" cy="120" r="5" class="st2" />
  
  <rect x="80" y="80" width="30" height="30" rx="5" transform="rotate(45 95 95)" class="st2" />
  <rect x="60" y="100" width="20" height="20" rx="5" transform="rotate(45 70 110)" class="st2" />
</svg>
